{
	"asset":{
		"generator":"Khronos glTF Blender I/O v3.6.27",
		"version":"2.0"
	},
	"extensionsUsed":[
		"KHR_materials_specular",
		"KHR_materials_ior"
	],
	"scene":0,
	"scenes":[
		{
			"name":"Scene",
			"nodes":[
				0,
				1,
				2,
				3,
				4,
				5,
				6,
				7
			]
		}
	],
	"nodes":[
		{
			"mesh":0,
			"name":"Cube.009",
			"rotation":[
				0.003180048195645213,
				6.727718573529273e-05,
				0.21044954657554626,
				0.977599561214447
			],
			"scale":[
				-0.4889203608036041,
				-0.5401419401168823,
				-0.5524910092353821
			],
			"translation":[
				0.3921463191509247,
				2.2992441654205322,
				-1.211600661277771
			]
		},
		{
			"mesh":1,
			"name":"Cube",
			"scale":[
				1.1438230276107788,
				1.3306479454040527,
				1.3306479454040527
			],
			"translation":[
				-0.5638274550437927,
				1.141861915588379,
				-1.6193147897720337
			]
		},
		{
			"mesh":2,
			"name":"Cube.001",
			"rotation":[
				0.02490025945007801,
				0.1494225412607193,
				-0.0004174915957264602,
				0.9884598851203918
			],
			"scale":[
				0.4063585698604584,
				0.2853411138057709,
				0.9700771570205688
			],
			"translation":[
				0.07055559754371643,
				-0.23471713066101074,
				-1.382096767425537
			]
		},
		{
			"mesh":3,
			"name":"Cube.005",
			"rotation":[
				-0.025378499180078506,
				0.01264910213649273,
				0.0004381069156806916,
				0.9995977878570557
			],
			"scale":[
				1.3195350170135498,
				1.3195343017578125,
				1.3195350170135498
			],
			"translation":[
				-0.7360625267028809,
				3.3997714519500732,
				-1.3713189363479614
			]
		},
		{
			"mesh":4,
			"name":"Cube.002",
			"rotation":[
				-0.025378499180078506,
				0.01264910213649273,
				0.0004381069156806916,
				0.9995977878570557
			],
			"scale":[
				0.2682191729545593,
				0.2764577269554138,
				0.27645787596702576
			],
			"translation":[
				-0.2586967945098877,
				3.145108938217163,
				-0.4645237624645233
			]
		},
		{
			"mesh":5,
			"name":"Cube.003",
			"rotation":[
				-0.025378499180078506,
				0.01264910213649273,
				0.0004381069156806916,
				0.9995977878570557
			],
			"scale":[
				0.2682191729545593,
				0.2764577269554138,
				0.27645787596702576
			],
			"translation":[
				-1.4597641229629517,
				3.145108938217163,
				-0.4525127112865448
			]
		},
		{
			"mesh":6,
			"name":"Cube.004",
			"scale":[
				0.5233942866325378,
				0.22154644131660461,
				0.5233942866325378
			],
			"translation":[
				-0.6222770810127258,
				2.510176420211792,
				0.14268222451210022
			]
		},
		{
			"mesh":7,
			"name":"Cube.006",
			"scale":[
				0.5233942866325378,
				0.22154644131660461,
				0.5233942866325378
			],
			"translation":[
				-0.6222770810127258,
				2.1619322299957275,
				0.14268222451210022
			]
		}
	],
	"materials":[
		{
			"doubleSided":true,
			"name":"Material.022",
			"pbrMetallicRoughness":{
				"baseColorFactor":[
					0.8000000715255737,
					0.42576470971107483,
					0.0013664115685969591,
					1
				],
				"metallicFactor":0,
				"roughnessFactor":0.5
			}
		},
		{
			"doubleSided":true,
			"name":"Material",
			"pbrMetallicRoughness":{
				"baseColorFactor":[
					0.8000000715255737,
					0.21194083988666534,
					0.11374977231025696,
					1
				],
				"metallicFactor":0,
				"roughnessFactor":0.5
			}
		},
		{
			"doubleSided":true,
			"extensions":{
				"KHR_materials_specular":{
					"specularColorFactor":[
						0.7036955878762017,
						0.7036955878762017,
						0.7036955878762017
					]
				},
				"KHR_materials_ior":{
					"ior":1.4500000476837158
				}
			},
			"name":"Material.021",
			"pbrMetallicRoughness":{
				"baseColorFactor":[
					0.0010314405662938952,
					0.0010314405662938952,
					0.0010314405662938952,
					1
				],
				"metallicFactor":0,
				"roughnessFactor":0.5
			}
		}
	],
	"meshes":[
		{
			"name":"Cube.009",
			"primitives":[
				{
					"attributes":{
						"POSITION":0,
						"NORMAL":1,
						"TEXCOORD_0":2
					},
					"indices":3,
					"material":0
				}
			]
		},
		{
			"name":"Cube.010",
			"primitives":[
				{
					"attributes":{
						"POSITION":4,
						"NORMAL":5,
						"TEXCOORD_0":6
					},
					"indices":7,
					"material":0
				}
			]
		},
		{
			"name":"Cube.008",
			"primitives":[
				{
					"attributes":{
						"POSITION":8,
						"NORMAL":9,
						"TEXCOORD_0":10
					},
					"indices":11,
					"material":1
				}
			]
		},
		{
			"name":"Cube.045",
			"primitives":[
				{
					"attributes":{
						"POSITION":12,
						"NORMAL":13,
						"TEXCOORD_0":14
					},
					"indices":15,
					"material":0
				}
			]
		},
		{
			"name":"Cube.044",
			"primitives":[
				{
					"attributes":{
						"POSITION":16,
						"NORMAL":17,
						"TEXCOORD_0":18
					},
					"indices":19,
					"material":2
				}
			]
		},
		{
			"name":"Cube.013",
			"primitives":[
				{
					"attributes":{
						"POSITION":20,
						"NORMAL":21,
						"TEXCOORD_0":22
					},
					"indices":19,
					"material":2
				}
			]
		},
		{
			"name":"Cube.014",
			"primitives":[
				{
					"attributes":{
						"POSITION":23,
						"NORMAL":24,
						"TEXCOORD_0":25
					},
					"indices":11,
					"material":1
				}
			]
		},
		{
			"name":"Cube.016",
			"primitives":[
				{
					"attributes":{
						"POSITION":26,
						"NORMAL":27,
						"TEXCOORD_0":28
					},
					"indices":11,
					"material":1
				}
			]
		}
	],
	"accessors":[
		{
			"bufferView":0,
			"componentType":5126,
			"count":29,
			"max":[
				1.5399930477142334,
				4.225422382354736,
				1.82107412815094
			],
			"min":[
				0.2386198341846466,
				-0.07274448871612549,
				0.06153140217065811
			],
			"type":"VEC3"
		},
		{
			"bufferView":1,
			"componentType":5126,
			"count":29,
			"type":"VEC3"
		},
		{
			"bufferView":2,
			"componentType":5126,
			"count":29,
			"type":"VEC2"
		},
		{
			"bufferView":3,
			"componentType":5123,
			"count":108,
			"type":"SCALAR"
		},
		{
			"bufferView":4,
			"componentType":5126,
			"count":16,
			"max":[
				1.1385318040847778,
				0.7309266924858093,
				0.5631688237190247
			],
			"min":[
				0,
				-1.1574640274047852,
				-0.562174379825592
			],
			"type":"VEC3"
		},
		{
			"bufferView":5,
			"componentType":5126,
			"count":16,
			"type":"VEC3"
		},
		{
			"bufferView":6,
			"componentType":5126,
			"count":16,
			"type":"VEC2"
		},
		{
			"bufferView":7,
			"componentType":5123,
			"count":48,
			"type":"SCALAR"
		},
		{
			"bufferView":8,
			"componentType":5126,
			"count":22,
			"max":[
				1,
				1,
				1
			],
			"min":[
				-1,
				-1,
				-1
			],
			"type":"VEC3"
		},
		{
			"bufferView":9,
			"componentType":5126,
			"count":22,
			"type":"VEC3"
		},
		{
			"bufferView":10,
			"componentType":5126,
			"count":22,
			"type":"VEC2"
		},
		{
			"bufferView":11,
			"componentType":5123,
			"count":60,
			"type":"SCALAR"
		},
		{
			"bufferView":12,
			"componentType":5126,
			"count":40,
			"max":[
				1.474887490272522,
				1.0673917531967163,
				0.9402135610580444
			],
			"min":[
				-1.233361005783081,
				-1.440783977508545,
				-1.1198924779891968
			],
			"type":"VEC3"
		},
		{
			"bufferView":13,
			"componentType":5126,
			"count":40,
			"type":"VEC3"
		},
		{
			"bufferView":14,
			"componentType":5126,
			"count":40,
			"type":"VEC2"
		},
		{
			"bufferView":15,
			"componentType":5123,
			"count":156,
			"type":"SCALAR"
		},
		{
			"bufferView":16,
			"componentType":5126,
			"count":14,
			"max":[
				1.7638983726501465,
				1.1911673545837402,
				1.296176552772522
			],
			"min":[
				-0.6283304691314697,
				-1.4299159049987793,
				-1.0960488319396973
			],
			"type":"VEC3"
		},
		{
			"bufferView":17,
			"componentType":5126,
			"count":14,
			"type":"VEC3"
		},
		{
			"bufferView":18,
			"componentType":5126,
			"count":14,
			"type":"VEC2"
		},
		{
			"bufferView":19,
			"componentType":5123,
			"count":36,
			"type":"SCALAR"
		},
		{
			"bufferView":20,
			"componentType":5126,
			"count":14,
			"max":[
				1.7638983726501465,
				1.1911673545837402,
				1.296176552772522
			],
			"min":[
				-0.6283304691314697,
				-1.4299159049987793,
				-1.0960488319396973
			],
			"type":"VEC3"
		},
		{
			"bufferView":21,
			"componentType":5126,
			"count":14,
			"type":"VEC3"
		},
		{
			"bufferView":22,
			"componentType":5126,
			"count":14,
			"type":"VEC2"
		},
		{
			"bufferView":23,
			"componentType":5126,
			"count":22,
			"max":[
				0.6796746850013733,
				1.232779860496521,
				0.6844849586486816
			],
			"min":[
				-0.689136803150177,
				-0.7630342841148376,
				-0.6843265891075134
			],
			"type":"VEC3"
		},
		{
			"bufferView":24,
			"componentType":5126,
			"count":22,
			"type":"VEC3"
		},
		{
			"bufferView":25,
			"componentType":5126,
			"count":22,
			"type":"VEC2"
		},
		{
			"bufferView":26,
			"componentType":5126,
			"count":22,
			"max":[
				0.4737723469734192,
				1.5717196464538574,
				0.5025070309638977
			],
			"min":[
				-0.5302954912185669,
				0.1882408857345581,
				-0.5017116069793701
			],
			"type":"VEC3"
		},
		{
			"bufferView":27,
			"componentType":5126,
			"count":22,
			"type":"VEC3"
		},
		{
			"bufferView":28,
			"componentType":5126,
			"count":22,
			"type":"VEC2"
		}
	],
	"bufferViews":[
		{
			"buffer":0,
			"byteLength":348,
			"byteOffset":0,
			"target":34962
		},
		{
			"buffer":0,
			"byteLength":348,
			"byteOffset":348,
			"target":34962
		},
		{
			"buffer":0,
			"byteLength":232,
			"byteOffset":696,
			"target":34962
		},
		{
			"buffer":0,
			"byteLength":216,
			"byteOffset":928,
			"target":34963
		},
		{
			"buffer":0,
			"byteLength":192,
			"byteOffset":1144,
			"target":34962
		},
		{
			"buffer":0,
			"byteLength":192,
			"byteOffset":1336,
			"target":34962
		},
		{
			"buffer":0,
			"byteLength":128,
			"byteOffset":1528,
			"target":34962
		},
		{
			"buffer":0,
			"byteLength":96,
			"byteOffset":1656,
			"target":34963
		},
		{
			"buffer":0,
			"byteLength":264,
			"byteOffset":1752,
			"target":34962
		},
		{
			"buffer":0,
			"byteLength":264,
			"byteOffset":2016,
			"target":34962
		},
		{
			"buffer":0,
			"byteLength":176,
			"byteOffset":2280,
			"target":34962
		},
		{
			"buffer":0,
			"byteLength":120,
			"byteOffset":2456,
			"target":34963
		},
		{
			"buffer":0,
			"byteLength":480,
			"byteOffset":2576,
			"target":34962
		},
		{
			"buffer":0,
			"byteLength":480,
			"byteOffset":3056,
			"target":34962
		},
		{
			"buffer":0,
			"byteLength":320,
			"byteOffset":3536,
			"target":34962
		},
		{
			"buffer":0,
			"byteLength":312,
			"byteOffset":3856,
			"target":34963
		},
		{
			"buffer":0,
			"byteLength":168,
			"byteOffset":4168,
			"target":34962
		},
		{
			"buffer":0,
			"byteLength":168,
			"byteOffset":4336,
			"target":34962
		},
		{
			"buffer":0,
			"byteLength":112,
			"byteOffset":4504,
			"target":34962
		},
		{
			"buffer":0,
			"byteLength":72,
			"byteOffset":4616,
			"target":34963
		},
		{
			"buffer":0,
			"byteLength":168,
			"byteOffset":4688,
			"target":34962
		},
		{
			"buffer":0,
			"byteLength":168,
			"byteOffset":4856,
			"target":34962
		},
		{
			"buffer":0,
			"byteLength":112,
			"byteOffset":5024,
			"target":34962
		},
		{
			"buffer":0,
			"byteLength":264,
			"byteOffset":5136,
			"target":34962
		},
		{
			"buffer":0,
			"byteLength":264,
			"byteOffset":5400,
			"target":34962
		},
		{
			"buffer":0,
			"byteLength":176,
			"byteOffset":5664,
			"target":34962
		},
		{
			"buffer":0,
			"byteLength":264,
			"byteOffset":5840,
			"target":34962
		},
		{
			"buffer":0,
			"byteLength":264,
			"byteOffset":6104,
			"target":34962
		},
		{
			"buffer":0,
			"byteLength":176,
			"byteOffset":6368,
			"target":34962
		}
	],
	"buffers":[
		{
			"byteLength":6544,
			"uri":"data:application/octet-stream;base64,"
		}
	]
}
