{
	"asset":{
		"generator":"Khronos glTF Blender I/O v3.6.27",
		"version":"2.0"
	},
	"extensionsUsed":[
		"KHR_materials_specular",
		"KHR_materials_ior"
	],
	"scene":0,
	"scenes":[
		{
			"name":"Scene",
			"nodes":[
				0,
				1,
				2,
				3,
				4,
				5,
				6,
				7,
				8,
				9,
				10
			]
		}
	],
	"nodes":[
		{
			"mesh":0,
			"name":"Cube.009",
			"rotation":[
				0.003180048195645213,
				6.727718573529273e-05,
				0.21044954657554626,
				0.977599561214447
			],
			"scale":[
				-0.5293684601783752,
				-0.5848273634910583,
				-0.5981982350349426
			],
			"translation":[
				0.3202674090862274,
				2.6031477451324463,
				-1.2312029600143433
			]
		},
		{
			"mesh":1,
			"name":"Cube.005",
			"scale":[
				1.6105879545211792,
				1.3818926811218262,
				1.2506864070892334
			],
			"translation":[
				-0.4927564859390259,
				3.4431700706481934,
				-0.7737818360328674
			]
		},
		{
			"mesh":2,
			"name":"Cube.003",
			"scale":[
				1.6105879545211792,
				1.3818926811218262,
				1.2506864070892334
			],
			"translation":[
				-0.4927564859390259,
				3.4431700706481934,
				-0.7737818360328674
			]
		},
		{
			"mesh":3,
			"name":"Cube.002",
			"scale":[
				1.6105879545211792,
				1.3818926811218262,
				1.2506864070892334
			],
			"translation":[
				-0.4927564859390259,
				3.4431700706481934,
				-0.7737818360328674
			]
		},
		{
			"mesh":4,
			"name":"Cube.007",
			"rotation":[
				0.024900255724787712,
				0.1494225412607193,
				-0.00041749171214178205,
				0.9884598851203918
			],
			"scale":[
				0.4399762749671936,
				0.30894720554351807,
				1.0503308773040771
			],
			"translation":[
				0.17043709754943848,
				-0.1007680892944336,
				-1.419128179550171
			]
		},
		{
			"mesh":5,
			"name":"Cube",
			"scale":[
				1.2384507656097412,
				1.4407315254211426,
				1.4407315254211426
			],
			"translation":[
				-0.5164280533790588,
				1.3896944522857666,
				-1.6759710311889648
			]
		},
		{
			"mesh":6,
			"name":"Cube.001",
			"scale":[
				0.773990273475647,
				0.9004089832305908,
				0.9004089832305908
			],
			"translation":[
				-0.5452808141708374,
				1.637326717376709,
				-1.2614467144012451
			]
		},
		{
			"mesh":7,
			"name":"Cube.004",
			"rotation":[
				0,
				-0.06833697110414505,
				0.9976623058319092,
				1.5173855750593168e-17
			],
			"scale":[
				0.8279407024383545,
				0.2337069809436798,
				0.5481771230697632
			],
			"translation":[
				-0.5901108980178833,
				1.7094087600708008,
				-1.3244550228118896
			]
		},
		{
			"mesh":8,
			"name":"Cube.006",
			"scale":[
				0.8224442005157471,
				0.2321554273366928,
				0.5445380806922913
			],
			"translation":[
				-0.463626503944397,
				3.027723550796509,
				-0.3757161796092987
			]
		},
		{
			"mesh":9,
			"name":"Cube.008",
			"rotation":[
				0.021184077486395836,
				0.004442315082997084,
				0.0005029335734434426,
				0.9997656941413879
			],
			"scale":[
				2.8377156257629395,
				2.434774875640869,
				2.203601360321045
			],
			"translation":[
				-0.4685323238372803,
				2.0709915161132812,
				-0.21233612298965454
			]
		},
		{
			"mesh":10,
			"name":"Cube.010",
			"rotation":[
				0,
				-0.06833697110414505,
				0.9976623058319092,
				1.5173855750593168e-17
			],
			"scale":[
				0.49934500455856323,
				0.14095261693000793,
				0.3306148946285248
			],
			"translation":[
				-0.463626503944397,
				2.6285932064056396,
				-0.43370917439460754
			]
		}
	],
	"materials":[
		{
			"doubleSided":true,
			"name":"Material.069",
			"pbrMetallicRoughness":{
				"baseColorFactor":[
					1,
					0.26370707154273987,
					0.09292969852685928,
					1
				],
				"metallicFactor":0,
				"roughnessFactor":0.5
			}
		},
		{
			"doubleSided":true,
			"extensions":{
				"KHR_materials_specular":{
					"specularColorFactor":[
						0.44936683580679465,
						0.44936683580679465,
						0.44936683580679465
					]
				},
				"KHR_materials_ior":{
					"ior":1.4500000476837158
				}
			},
			"name":"Material.072",
			"pbrMetallicRoughness":{
				"baseColorFactor":[
					0.0010303603485226631,
					0.0010303603485226631,
					0.0010303603485226631,
					1
				],
				"metallicFactor":0,
				"roughnessFactor":0.22602739930152893
			}
		},
		{
			"doubleSided":true,
			"name":"Material.070",
			"pbrMetallicRoughness":{
				"baseColorFactor":[
					0.013407988473773003,
					0.013407988473773003,
					0.013407988473773003,
					1
				],
				"metallicFactor":0,
				"roughnessFactor":0.5
			}
		},
		{
			"doubleSided":true,
			"name":"Material.002",
			"pbrMetallicRoughness":{
				"baseColorFactor":[
					0.8000000715255737,
					0.21194083988666534,
					0.11374977231025696,
					1
				],
				"metallicFactor":0,
				"roughnessFactor":0.5
			}
		},
		{
			"doubleSided":true,
			"name":"Material.076",
			"pbrMetallicRoughness":{
				"baseColorFactor":[
					0.8140237331390381,
					0.013470307923853397,
					0.009572166949510574,
					1
				],
				"metallicFactor":0,
				"roughnessFactor":0.5
			}
		},
		{
			"doubleSided":true,
			"name":"Material.001",
			"pbrMetallicRoughness":{
				"baseColorFactor":[
					0.8000000715255737,
					0.35608723759651184,
					0.01583731174468994,
					1
				],
				"metallicFactor":0,
				"roughnessFactor":0.5
			}
		}
	],
	"meshes":[
		{
			"name":"Cube.001",
			"primitives":[
				{
					"attributes":{
						"POSITION":0,
						"NORMAL":1,
						"TEXCOORD_0":2
					},
					"indices":3,
					"material":0
				}
			]
		},
		{
			"name":"Cube.019",
			"primitives":[
				{
					"attributes":{
						"POSITION":4,
						"NORMAL":5,
						"TEXCOORD_0":6
					},
					"indices":7,
					"material":0
				}
			]
		},
		{
			"name":"Cube.025",
			"primitives":[
				{
					"attributes":{
						"POSITION":8,
						"NORMAL":9,
						"TEXCOORD_0":10
					},
					"indices":11,
					"material":1
				}
			]
		},
		{
			"name":"Cube.017",
			"primitives":[
				{
					"attributes":{
						"POSITION":12,
						"NORMAL":13,
						"TEXCOORD_0":14
					},
					"indices":15,
					"material":2
				}
			]
		},
		{
			"name":"Cube.002",
			"primitives":[
				{
					"attributes":{
						"POSITION":16,
						"NORMAL":17,
						"TEXCOORD_0":18
					},
					"indices":19,
					"material":3
				}
			]
		},
		{
			"name":"Cube.003",
			"primitives":[
				{
					"attributes":{
						"POSITION":20,
						"NORMAL":21,
						"TEXCOORD_0":22
					},
					"indices":23,
					"material":2
				}
			]
		},
		{
			"name":"Cube.004",
			"primitives":[
				{
					"attributes":{
						"POSITION":24,
						"NORMAL":25,
						"TEXCOORD_0":26
					},
					"indices":23,
					"material":0
				}
			]
		},
		{
			"name":"Cube.005",
			"primitives":[
				{
					"attributes":{
						"POSITION":27,
						"NORMAL":28,
						"TEXCOORD_0":29
					},
					"indices":30,
					"material":4
				}
			]
		},
		{
			"name":"Cube.020",
			"primitives":[
				{
					"attributes":{
						"POSITION":31,
						"NORMAL":32,
						"TEXCOORD_0":33
					},
					"indices":34,
					"material":5
				}
			]
		},
		{
			"name":"Cube.040",
			"primitives":[
				{
					"attributes":{
						"POSITION":35,
						"NORMAL":36,
						"TEXCOORD_0":37
					},
					"indices":38,
					"material":4
				}
			]
		},
		{
			"name":"Cube.042",
			"primitives":[
				{
					"attributes":{
						"POSITION":39,
						"NORMAL":40,
						"TEXCOORD_0":41
					},
					"indices":34,
					"material":5
				}
			]
		}
	],
	"accessors":[
		{
			"bufferView":0,
			"componentType":5126,
			"count":29,
			"max":[
				1.6175123453140259,
				4.044036388397217,
				1.7970819473266602
			],
			"min":[
				0.21375396847724915,
				-0.349492609500885,
				0.07938291132450104
			],
			"type":"VEC3"
		},
		{
			"bufferView":1,
			"componentType":5126,
			"count":29,
			"type":"VEC3"
		},
		{
			"bufferView":2,
			"componentType":5126,
			"count":29,
			"type":"VEC2"
		},
		{
			"bufferView":3,
			"componentType":5123,
			"count":108,
			"type":"SCALAR"
		},
		{
			"bufferView":4,
			"componentType":5126,
			"count":441,
			"max":[
				0.8607519865036011,
				0.9238221645355225,
				0.2970598340034485
			],
			"min":[
				-0.8607519865036011,
				-1.0651521682739258,
				-1.5935630798339844
			],
			"type":"VEC3"
		},
		{
			"bufferView":5,
			"componentType":5126,
			"count":441,
			"type":"VEC3"
		},
		{
			"bufferView":6,
			"componentType":5126,
			"count":441,
			"type":"VEC2"
		},
		{
			"bufferView":7,
			"componentType":5123,
			"count":2304,
			"type":"SCALAR"
		},
		{
			"bufferView":8,
			"componentType":5126,
			"count":16,
			"max":[
				0.5887179374694824,
				0.19233684241771698,
				0.3635532855987549
			],
			"min":[
				-0.611202597618103,
				-0.10826572775840759,
				-0.01629108190536499
			],
			"type":"VEC3"
		},
		{
			"bufferView":9,
			"componentType":5126,
			"count":16,
			"type":"VEC3"
		},
		{
			"bufferView":10,
			"componentType":5126,
			"count":16,
			"type":"VEC2"
		},
		{
			"bufferView":11,
			"componentType":5123,
			"count":72,
			"type":"SCALAR"
		},
		{
			"bufferView":12,
			"componentType":5126,
			"count":66,
			"max":[
				0.8091416954994202,
				0.9298260807991028,
				0.29509133100509644
			],
			"min":[
				0,
				-0.6124252676963806,
				-0.6496514678001404
			],
			"type":"VEC3"
		},
		{
			"bufferView":13,
			"componentType":5126,
			"count":66,
			"type":"VEC3"
		},
		{
			"bufferView":14,
			"componentType":5126,
			"count":66,
			"type":"VEC2"
		},
		{
			"bufferView":15,
			"componentType":5123,
			"count":261,
			"type":"SCALAR"
		},
		{
			"bufferView":16,
			"componentType":5126,
			"count":22,
			"max":[
				1,
				1,
				1
			],
			"min":[
				-1,
				-1,
				-1
			],
			"type":"VEC3"
		},
		{
			"bufferView":17,
			"componentType":5126,
			"count":22,
			"type":"VEC3"
		},
		{
			"bufferView":18,
			"componentType":5126,
			"count":22,
			"type":"VEC2"
		},
		{
			"bufferView":19,
			"componentType":5123,
			"count":60,
			"type":"SCALAR"
		},
		{
			"bufferView":20,
			"componentType":5126,
			"count":16,
			"max":[
				0.9172205328941345,
				0.7309265732765198,
				0.5631687045097351
			],
			"min":[
				0,
				-1.157463788986206,
				-0.5621743202209473
			],
			"type":"VEC3"
		},
		{
			"bufferView":21,
			"componentType":5126,
			"count":16,
			"type":"VEC3"
		},
		{
			"bufferView":22,
			"componentType":5126,
			"count":16,
			"type":"VEC2"
		},
		{
			"bufferView":23,
			"componentType":5123,
			"count":48,
			"type":"SCALAR"
		},
		{
			"bufferView":24,
			"componentType":5126,
			"count":16,
			"max":[
				1.1385318040847778,
				0.7309266924858093,
				0.5631688237190247
			],
			"min":[
				0,
				-1.1574640274047852,
				-0.562174379825592
			],
			"type":"VEC3"
		},
		{
			"bufferView":25,
			"componentType":5126,
			"count":16,
			"type":"VEC3"
		},
		{
			"bufferView":26,
			"componentType":5126,
			"count":16,
			"type":"VEC2"
		},
		{
			"bufferView":27,
			"componentType":5126,
			"count":28,
			"max":[
				0.27982383966445923,
				0.7554262280464172,
				1.3706707954406738
			],
			"min":[
				-0.34948959946632385,
				-2.5333573818206787,
				0.2855130136013031
			],
			"type":"VEC3"
		},
		{
			"bufferView":28,
			"componentType":5126,
			"count":28,
			"type":"VEC3"
		},
		{
			"bufferView":29,
			"componentType":5126,
			"count":28,
			"type":"VEC2"
		},
		{
			"bufferView":30,
			"componentType":5123,
			"count":84,
			"type":"SCALAR"
		},
		{
			"bufferView":31,
			"componentType":5126,
			"count":20,
			"max":[
				0.4069501459598541,
				1.4412726163864136,
				1.0700478553771973
			],
			"min":[
				-0.4122447669506073,
				-1.2859262228012085,
				-0.47692233324050903
			],
			"type":"VEC3"
		},
		{
			"bufferView":32,
			"componentType":5126,
			"count":20,
			"type":"VEC3"
		},
		{
			"bufferView":33,
			"componentType":5126,
			"count":20,
			"type":"VEC2"
		},
		{
			"bufferView":34,
			"componentType":5123,
			"count":48,
			"type":"SCALAR"
		},
		{
			"bufferView":35,
			"componentType":5126,
			"count":48,
			"max":[
				0.16469304263591766,
				1.2719573974609375,
				-0.1168510913848877
			],
			"min":[
				-0.16469304263591766,
				0.6310120224952698,
				-1.2603331804275513
			],
			"type":"VEC3"
		},
		{
			"bufferView":36,
			"componentType":5126,
			"count":48,
			"type":"VEC3"
		},
		{
			"bufferView":37,
			"componentType":5126,
			"count":48,
			"type":"VEC2"
		},
		{
			"bufferView":38,
			"componentType":5123,
			"count":276,
			"type":"SCALAR"
		},
		{
			"bufferView":39,
			"componentType":5126,
			"count":20,
			"max":[
				0.4069501459598541,
				1.4412726163864136,
				1.0700478553771973
			],
			"min":[
				-0.4122447669506073,
				-1.2859262228012085,
				-0.47692233324050903
			],
			"type":"VEC3"
		},
		{
			"bufferView":40,
			"componentType":5126,
			"count":20,
			"type":"VEC3"
		},
		{
			"bufferView":41,
			"componentType":5126,
			"count":20,
			"type":"VEC2"
		}
	],
	"bufferViews":[
		{
			"buffer":0,
			"byteLength":348,
			"byteOffset":0,
			"target":34962
		},
		{
			"buffer":0,
			"byteLength":348,
			"byteOffset":348,
			"target":34962
		},
		{
			"buffer":0,
			"byteLength":232,
			"byteOffset":696,
			"target":34962
		},
		{
			"buffer":0,
			"byteLength":216,
			"byteOffset":928,
			"target":34963
		},
		{
			"buffer":0,
			"byteLength":5292,
			"byteOffset":1144,
			"target":34962
		},
		{
			"buffer":0,
			"byteLength":5292,
			"byteOffset":6436,
			"target":34962
		},
		{
			"buffer":0,
			"byteLength":3528,
			"byteOffset":11728,
			"target":34962
		},
		{
			"buffer":0,
			"byteLength":4608,
			"byteOffset":15256,
			"target":34963
		},
		{
			"buffer":0,
			"byteLength":192,
			"byteOffset":19864,
			"target":34962
		},
		{
			"buffer":0,
			"byteLength":192,
			"byteOffset":20056,
			"target":34962
		},
		{
			"buffer":0,
			"byteLength":128,
			"byteOffset":20248,
			"target":34962
		},
		{
			"buffer":0,
			"byteLength":144,
			"byteOffset":20376,
			"target":34963
		},
		{
			"buffer":0,
			"byteLength":792,
			"byteOffset":20520,
			"target":34962
		},
		{
			"buffer":0,
			"byteLength":792,
			"byteOffset":21312,
			"target":34962
		},
		{
			"buffer":0,
			"byteLength":528,
			"byteOffset":22104,
			"target":34962
		},
		{
			"buffer":0,
			"byteLength":522,
			"byteOffset":22632,
			"target":34963
		},
		{
			"buffer":0,
			"byteLength":264,
			"byteOffset":23156,
			"target":34962
		},
		{
			"buffer":0,
			"byteLength":264,
			"byteOffset":23420,
			"target":34962
		},
		{
			"buffer":0,
			"byteLength":176,
			"byteOffset":23684,
			"target":34962
		},
		{
			"buffer":0,
			"byteLength":120,
			"byteOffset":23860,
			"target":34963
		},
		{
			"buffer":0,
			"byteLength":192,
			"byteOffset":23980,
			"target":34962
		},
		{
			"buffer":0,
			"byteLength":192,
			"byteOffset":24172,
			"target":34962
		},
		{
			"buffer":0,
			"byteLength":128,
			"byteOffset":24364,
			"target":34962
		},
		{
			"buffer":0,
			"byteLength":96,
			"byteOffset":24492,
			"target":34963
		},
		{
			"buffer":0,
			"byteLength":192,
			"byteOffset":24588,
			"target":34962
		},
		{
			"buffer":0,
			"byteLength":192,
			"byteOffset":24780,
			"target":34962
		},
		{
			"buffer":0,
			"byteLength":128,
			"byteOffset":24972,
			"target":34962
		},
		{
			"buffer":0,
			"byteLength":336,
			"byteOffset":25100,
			"target":34962
		},
		{
			"buffer":0,
			"byteLength":336,
			"byteOffset":25436,
			"target":34962
		},
		{
			"buffer":0,
			"byteLength":224,
			"byteOffset":25772,
			"target":34962
		},
		{
			"buffer":0,
			"byteLength":168,
			"byteOffset":25996,
			"target":34963
		},
		{
			"buffer":0,
			"byteLength":240,
			"byteOffset":26164,
			"target":34962
		},
		{
			"buffer":0,
			"byteLength":240,
			"byteOffset":26404,
			"target":34962
		},
		{
			"buffer":0,
			"byteLength":160,
			"byteOffset":26644,
			"target":34962
		},
		{
			"buffer":0,
			"byteLength":96,
			"byteOffset":26804,
			"target":34963
		},
		{
			"buffer":0,
			"byteLength":576,
			"byteOffset":26900,
			"target":34962
		},
		{
			"buffer":0,
			"byteLength":576,
			"byteOffset":27476,
			"target":34962
		},
		{
			"buffer":0,
			"byteLength":384,
			"byteOffset":28052,
			"target":34962
		},
		{
			"buffer":0,
			"byteLength":552,
			"byteOffset":28436,
			"target":34963
		},
		{
			"buffer":0,
			"byteLength":240,
			"byteOffset":28988,
			"target":34962
		},
		{
			"buffer":0,
			"byteLength":240,
			"byteOffset":29228,
			"target":34962
		},
		{
			"buffer":0,
			"byteLength":160,
			"byteOffset":29468,
			"target":34962
		}
	],
	"buffers":[
		{
			"byteLength":29628,
			"uri":"data:application/octet-stream;base64,"
		}
	]
}
