{
	"asset":{
		"generator":"Khronos glTF Blender I/O v3.6.27",
		"version":"2.0"
	},
	"extensionsUsed":[
		"KHR_materials_specular",
		"KHR_materials_ior"
	],
	"scene":0,
	"scenes":[
		{
			"name":"Scene",
			"nodes":[
				0,
				1,
				2,
				3,
				4,
				5,
				6,
				7,
				8
			]
		}
	],
	"nodes":[
		{
			"mesh":0,
			"name":"Cube.004",
			"scale":[
				0.5749724507331848,
				0.24337886273860931,
				0.5749724507331848
			],
			"translation":[
				-0.48264554142951965,
				2.8110735416412354,
				-0.45305758714675903
			]
		},
		{
			"mesh":1,
			"name":"Cube.006",
			"scale":[
				0.5749724507331848,
				0.24337886273860931,
				0.5749724507331848
			],
			"translation":[
				-0.48264554142951965,
				2.428511381149292,
				-0.45305758714675903
			]
		},
		{
			"mesh":2,
			"name":"Cube.009",
			"rotation":[
				0.003180048195645213,
				6.727718573529273e-05,
				0.21044953167438507,
				0.977599561214447
			],
			"scale":[
				-0.5371013283729553,
				-0.5933704376220703,
				-0.6069366335868835
			],
			"translation":[
				0.5312633514404297,
				2.6487021446228027,
				-1.2389367818832397
			]
		},
		{
			"mesh":3,
			"name":"Cube.005",
			"scale":[
				1.6341149806976318,
				1.4020791053771973,
				1.268956184387207
			],
			"translation":[
				-0.49490001797676086,
				3.4607369899749756,
				-0.7714611291885376
			]
		},
		{
			"mesh":4,
			"name":"Cube.003",
			"scale":[
				1.6341149806976318,
				1.4020791053771973,
				1.268956184387207
			],
			"translation":[
				-0.49490001797676086,
				3.4607369899749756,
				-0.7714611291885376
			]
		},
		{
			"mesh":5,
			"name":"Cube.002",
			"scale":[
				1.6341149806976318,
				1.4020791053771973,
				1.268956184387207
			],
			"translation":[
				-0.49490001797676086,
				3.4607369899749756,
				-0.7714611291885376
			]
		},
		{
			"mesh":6,
			"name":"Cube.007",
			"rotation":[
				0.024900255724787712,
				0.1494225412607193,
				-0.0004174915957264602,
				0.9884598851203918
			],
			"scale":[
				0.4464033544063568,
				0.31346020102500916,
				1.065674066543579
			],
			"translation":[
				0.17798131704330444,
				-0.13496994972229004,
				-1.426234483718872
			]
		},
		{
			"mesh":7,
			"name":"Cube",
			"scale":[
				1.2565417289733887,
				1.4617773294448853,
				1.4617773294448853
			],
			"translation":[
				-0.5189173817634583,
				1.3772648572921753,
				-1.6868293285369873
			]
		},
		{
			"mesh":8,
			"name":"Cube.001",
			"scale":[
				0.7852965593338013,
				0.9135619401931763,
				0.9135619401931763
			],
			"translation":[
				-0.5481916069984436,
				1.6285144090652466,
				-1.2662497758865356
			]
		}
	],
	"materials":[
		{
			"doubleSided":true,
			"name":"Material",
			"pbrMetallicRoughness":{
				"baseColorFactor":[
					0.8000000715255737,
					0.21194083988666534,
					0.11374977231025696,
					1
				],
				"metallicFactor":0,
				"roughnessFactor":0.5
			}
		},
		{
			"doubleSided":true,
			"name":"Material.069",
			"pbrMetallicRoughness":{
				"baseColorFactor":[
					1,
					0.8549919128417969,
					0.8549919128417969,
					1
				],
				"metallicFactor":0,
				"roughnessFactor":0.5
			}
		},
		{
			"doubleSided":true,
			"extensions":{
				"KHR_materials_specular":{
					"specularColorFactor":[
						0.44936683580679465,
						0.44936683580679465,
						0.44936683580679465
					]
				},
				"KHR_materials_ior":{
					"ior":1.4500000476837158
				}
			},
			"name":"Material.072",
			"pbrMetallicRoughness":{
				"baseColorFactor":[
					0.0010303603485226631,
					0.0010303603485226631,
					0.0010303603485226631,
					1
				],
				"metallicFactor":0,
				"roughnessFactor":0.22602739930152893
			}
		},
		{
			"doubleSided":true,
			"name":"Material.070",
			"pbrMetallicRoughness":{
				"baseColorFactor":[
					0.013407988473773003,
					0.013407988473773003,
					0.013407988473773003,
					1
				],
				"metallicFactor":0,
				"roughnessFactor":0.5
			}
		},
		{
			"doubleSided":true,
			"name":"Material.002",
			"pbrMetallicRoughness":{
				"baseColorFactor":[
					0.8000000715255737,
					0.21194083988666534,
					0.11374977231025696,
					1
				],
				"metallicFactor":0,
				"roughnessFactor":0.5
			}
		}
	],
	"meshes":[
		{
			"name":"Cube.014",
			"primitives":[
				{
					"attributes":{
						"POSITION":0,
						"NORMAL":1,
						"TEXCOORD_0":2
					},
					"indices":3,
					"material":0
				}
			]
		},
		{
			"name":"Cube.016",
			"primitives":[
				{
					"attributes":{
						"POSITION":4,
						"NORMAL":5,
						"TEXCOORD_0":6
					},
					"indices":3,
					"material":0
				}
			]
		},
		{
			"name":"Cube.001",
			"primitives":[
				{
					"attributes":{
						"POSITION":7,
						"NORMAL":8,
						"TEXCOORD_0":9
					},
					"indices":10,
					"material":1
				}
			]
		},
		{
			"name":"Cube.019",
			"primitives":[
				{
					"attributes":{
						"POSITION":11,
						"NORMAL":12,
						"TEXCOORD_0":13
					},
					"indices":14,
					"material":1
				}
			]
		},
		{
			"name":"Cube.025",
			"primitives":[
				{
					"attributes":{
						"POSITION":15,
						"NORMAL":16,
						"TEXCOORD_0":17
					},
					"indices":18,
					"material":2
				}
			]
		},
		{
			"name":"Cube.017",
			"primitives":[
				{
					"attributes":{
						"POSITION":19,
						"NORMAL":20,
						"TEXCOORD_0":21
					},
					"indices":22,
					"material":3
				}
			]
		},
		{
			"name":"Cube.002",
			"primitives":[
				{
					"attributes":{
						"POSITION":23,
						"NORMAL":24,
						"TEXCOORD_0":25
					},
					"indices":3,
					"material":4
				}
			]
		},
		{
			"name":"Cube.003",
			"primitives":[
				{
					"attributes":{
						"POSITION":26,
						"NORMAL":27,
						"TEXCOORD_0":28
					},
					"indices":29,
					"material":3
				}
			]
		},
		{
			"name":"Cube.004",
			"primitives":[
				{
					"attributes":{
						"POSITION":30,
						"NORMAL":31,
						"TEXCOORD_0":32
					},
					"indices":29,
					"material":1
				}
			]
		}
	],
	"accessors":[
		{
			"bufferView":0,
			"componentType":5126,
			"count":22,
			"max":[
				0.6796746850013733,
				1.232779860496521,
				0.6844849586486816
			],
			"min":[
				-0.689136803150177,
				-0.7630342841148376,
				-0.6843265891075134
			],
			"type":"VEC3"
		},
		{
			"bufferView":1,
			"componentType":5126,
			"count":22,
			"type":"VEC3"
		},
		{
			"bufferView":2,
			"componentType":5126,
			"count":22,
			"type":"VEC2"
		},
		{
			"bufferView":3,
			"componentType":5123,
			"count":60,
			"type":"SCALAR"
		},
		{
			"bufferView":4,
			"componentType":5126,
			"count":22,
			"max":[
				0.4737723469734192,
				1.5717196464538574,
				0.5025070309638977
			],
			"min":[
				-0.5302954912185669,
				0.1882408857345581,
				-0.5017116069793701
			],
			"type":"VEC3"
		},
		{
			"bufferView":5,
			"componentType":5126,
			"count":22,
			"type":"VEC3"
		},
		{
			"bufferView":6,
			"componentType":5126,
			"count":22,
			"type":"VEC2"
		},
		{
			"bufferView":7,
			"componentType":5126,
			"count":29,
			"max":[
				1.5399930477142334,
				4.225422382354736,
				1.82107412815094
			],
			"min":[
				0.2386198341846466,
				-0.07274448871612549,
				0.06153140217065811
			],
			"type":"VEC3"
		},
		{
			"bufferView":8,
			"componentType":5126,
			"count":29,
			"type":"VEC3"
		},
		{
			"bufferView":9,
			"componentType":5126,
			"count":29,
			"type":"VEC2"
		},
		{
			"bufferView":10,
			"componentType":5123,
			"count":108,
			"type":"SCALAR"
		},
		{
			"bufferView":11,
			"componentType":5126,
			"count":441,
			"max":[
				0.8607519865036011,
				0.9238221645355225,
				0.2970598340034485
			],
			"min":[
				-0.8607519865036011,
				-1.0651521682739258,
				-1.5935630798339844
			],
			"type":"VEC3"
		},
		{
			"bufferView":12,
			"componentType":5126,
			"count":441,
			"type":"VEC3"
		},
		{
			"bufferView":13,
			"componentType":5126,
			"count":441,
			"type":"VEC2"
		},
		{
			"bufferView":14,
			"componentType":5123,
			"count":2304,
			"type":"SCALAR"
		},
		{
			"bufferView":15,
			"componentType":5126,
			"count":16,
			"max":[
				0.6030892133712769,
				0.28869760036468506,
				0.4507428705692291
			],
			"min":[
				-0.5823590755462646,
				-0.19207490980625153,
				-0.11866822838783264
			],
			"type":"VEC3"
		},
		{
			"bufferView":16,
			"componentType":5126,
			"count":16,
			"type":"VEC3"
		},
		{
			"bufferView":17,
			"componentType":5126,
			"count":16,
			"type":"VEC2"
		},
		{
			"bufferView":18,
			"componentType":5123,
			"count":72,
			"type":"SCALAR"
		},
		{
			"bufferView":19,
			"componentType":5126,
			"count":66,
			"max":[
				0.8091416954994202,
				0.9298260807991028,
				0.29509133100509644
			],
			"min":[
				0,
				-0.6124252676963806,
				-0.6496514678001404
			],
			"type":"VEC3"
		},
		{
			"bufferView":20,
			"componentType":5126,
			"count":66,
			"type":"VEC3"
		},
		{
			"bufferView":21,
			"componentType":5126,
			"count":66,
			"type":"VEC2"
		},
		{
			"bufferView":22,
			"componentType":5123,
			"count":261,
			"type":"SCALAR"
		},
		{
			"bufferView":23,
			"componentType":5126,
			"count":22,
			"max":[
				1,
				1,
				1
			],
			"min":[
				-1,
				-1,
				-1
			],
			"type":"VEC3"
		},
		{
			"bufferView":24,
			"componentType":5126,
			"count":22,
			"type":"VEC3"
		},
		{
			"bufferView":25,
			"componentType":5126,
			"count":22,
			"type":"VEC2"
		},
		{
			"bufferView":26,
			"componentType":5126,
			"count":16,
			"max":[
				1.1385318040847778,
				0.7309266924858093,
				0.5631688237190247
			],
			"min":[
				0,
				-1.1574640274047852,
				-0.562174379825592
			],
			"type":"VEC3"
		},
		{
			"bufferView":27,
			"componentType":5126,
			"count":16,
			"type":"VEC3"
		},
		{
			"bufferView":28,
			"componentType":5126,
			"count":16,
			"type":"VEC2"
		},
		{
			"bufferView":29,
			"componentType":5123,
			"count":48,
			"type":"SCALAR"
		},
		{
			"bufferView":30,
			"componentType":5126,
			"count":16,
			"max":[
				1.1385318040847778,
				0.7309266924858093,
				0.5631688237190247
			],
			"min":[
				0,
				-1.1574640274047852,
				-0.562174379825592
			],
			"type":"VEC3"
		},
		{
			"bufferView":31,
			"componentType":5126,
			"count":16,
			"type":"VEC3"
		},
		{
			"bufferView":32,
			"componentType":5126,
			"count":16,
			"type":"VEC2"
		}
	],
	"bufferViews":[
		{
			"buffer":0,
			"byteLength":264,
			"byteOffset":0,
			"target":34962
		},
		{
			"buffer":0,
			"byteLength":264,
			"byteOffset":264,
			"target":34962
		},
		{
			"buffer":0,
			"byteLength":176,
			"byteOffset":528,
			"target":34962
		},
		{
			"buffer":0,
			"byteLength":120,
			"byteOffset":704,
			"target":34963
		},
		{
			"buffer":0,
			"byteLength":264,
			"byteOffset":824,
			"target":34962
		},
		{
			"buffer":0,
			"byteLength":264,
			"byteOffset":1088,
			"target":34962
		},
		{
			"buffer":0,
			"byteLength":176,
			"byteOffset":1352,
			"target":34962
		},
		{
			"buffer":0,
			"byteLength":348,
			"byteOffset":1528,
			"target":34962
		},
		{
			"buffer":0,
			"byteLength":348,
			"byteOffset":1876,
			"target":34962
		},
		{
			"buffer":0,
			"byteLength":232,
			"byteOffset":2224,
			"target":34962
		},
		{
			"buffer":0,
			"byteLength":216,
			"byteOffset":2456,
			"target":34963
		},
		{
			"buffer":0,
			"byteLength":5292,
			"byteOffset":2672,
			"target":34962
		},
		{
			"buffer":0,
			"byteLength":5292,
			"byteOffset":7964,
			"target":34962
		},
		{
			"buffer":0,
			"byteLength":3528,
			"byteOffset":13256,
			"target":34962
		},
		{
			"buffer":0,
			"byteLength":4608,
			"byteOffset":16784,
			"target":34963
		},
		{
			"buffer":0,
			"byteLength":192,
			"byteOffset":21392,
			"target":34962
		},
		{
			"buffer":0,
			"byteLength":192,
			"byteOffset":21584,
			"target":34962
		},
		{
			"buffer":0,
			"byteLength":128,
			"byteOffset":21776,
			"target":34962
		},
		{
			"buffer":0,
			"byteLength":144,
			"byteOffset":21904,
			"target":34963
		},
		{
			"buffer":0,
			"byteLength":792,
			"byteOffset":22048,
			"target":34962
		},
		{
			"buffer":0,
			"byteLength":792,
			"byteOffset":22840,
			"target":34962
		},
		{
			"buffer":0,
			"byteLength":528,
			"byteOffset":23632,
			"target":34962
		},
		{
			"buffer":0,
			"byteLength":522,
			"byteOffset":24160,
			"target":34963
		},
		{
			"buffer":0,
			"byteLength":264,
			"byteOffset":24684,
			"target":34962
		},
		{
			"buffer":0,
			"byteLength":264,
			"byteOffset":24948,
			"target":34962
		},
		{
			"buffer":0,
			"byteLength":176,
			"byteOffset":25212,
			"target":34962
		},
		{
			"buffer":0,
			"byteLength":192,
			"byteOffset":25388,
			"target":34962
		},
		{
			"buffer":0,
			"byteLength":192,
			"byteOffset":25580,
			"target":34962
		},
		{
			"buffer":0,
			"byteLength":128,
			"byteOffset":25772,
			"target":34962
		},
		{
			"buffer":0,
			"byteLength":96,
			"byteOffset":25900,
			"target":34963
		},
		{
			"buffer":0,
			"byteLength":192,
			"byteOffset":25996,
			"target":34962
		},
		{
			"buffer":0,
			"byteLength":192,
			"byteOffset":26188,
			"target":34962
		},
		{
			"buffer":0,
			"byteLength":128,
			"byteOffset":26380,
			"target":34962
		}
	],
	"buffers":[
		{
			"byteLength":26508,
			"uri":"data:application/octet-stream;base64,"
		}
	]
}
